<svg width="20" height="20" viewBox="0 0 20 20" fill="none" xmlns="http://www.w3.org/2000/svg">
<g id="material-symbols:location-on">
<path id="Vector" d="M10 10.0001C10.4583 10.0001 10.8508 9.83675 11.1775 9.51008C11.5042 9.18341 11.6672 8.79119 11.6667 8.33341C11.6667 7.87508 11.5033 7.48258 11.1767 7.15591C10.85 6.82925 10.4578 6.66619 10 6.66675C9.54167 6.66675 9.14917 6.83008 8.8225 7.15675C8.49584 7.48341 8.33278 7.87564 8.33334 8.33341C8.33334 8.79175 8.49667 9.18425 8.82334 9.51091C9.15 9.83758 9.54222 10.0006 10 10.0001ZM10 18.3334C7.76389 16.4306 6.09389 14.6634 4.99 13.0317C3.88611 11.4001 3.33389 9.88953 3.33334 8.50008C3.33334 6.41675 4.00361 4.75703 5.34417 3.52091C6.68472 2.2848 8.23667 1.66675 10 1.66675C11.7639 1.66675 13.3161 2.2848 14.6567 3.52091C15.9972 4.75703 16.6672 6.41675 16.6667 8.50008C16.6667 9.88897 16.1144 11.3995 15.01 13.0317C13.9056 14.664 12.2356 16.4312 10 18.3334Z" fill="#F34509"/>
</g>
</svg>
